<svg width="72" height="61" viewBox="0 0 72 61" fill="none" xmlns="http://www.w3.org/2000/svg">
<path d="M38.8308 45.3395C44.3205 42.17 44.9844 33.0422 40.3135 24.9521C35.6427 16.8619 27.4059 12.873 21.9162 16.0425C16.4264 19.212 15.7626 28.3397 20.4334 36.4299C25.1043 44.52 33.341 48.509 38.8308 45.3395Z" fill="#A57939"/>
<path fill-rule="evenodd" clip-rule="evenodd" d="M38.9945 45.2449C38.9867 45.2495 38.9777 45.24 38.9841 45.2328C42.4839 41.2354 42.2904 33.3769 38.1636 26.2289C34.0343 19.0768 27.3202 14.9795 22.1071 16.018C22.0651 16.0262 22.0428 15.9694 22.0799 15.9479C27.4789 12.8308 35.6427 16.8619 40.3135 24.9521C44.9844 33.0422 44.3935 42.1278 38.9945 45.2449Z" fill="#6A462F"/>
<path fill-rule="evenodd" clip-rule="evenodd" d="M37.9247 43.7699C37.9247 43.7699 31.4049 39.7265 27.2345 32.5032C23.0784 25.3045 22.8243 17.6638 22.8223 17.6119C22.8235 17.6489 22.9534 21.4634 25.0284 25.0576C27.1134 28.6689 30.3735 30.6909 30.3735 30.6909C30.3735 30.6909 33.6332 32.7124 35.7186 36.3243C37.8039 39.9362 37.9247 43.7699 37.9247 43.7699Z" fill="#6A462F"/>
<path d="M37.9246 43.7699L37.6063 44.283C37.6991 44.3405 37.8058 44.3717 37.915 44.3734C38.0242 44.3751 38.1318 44.3471 38.2263 44.2925C38.3209 44.2379 38.3989 44.1587 38.452 44.0633C38.5052 43.9679 38.5315 43.8599 38.5281 43.7508L37.9246 43.7699ZM22.8223 17.6119L23.426 17.5919C23.4208 17.4318 23.3521 17.2803 23.2352 17.1707C23.1182 17.0612 22.9626 17.0026 22.8024 17.0078C22.6423 17.013 22.4908 17.0817 22.3812 17.1986C22.2717 17.3156 22.2131 17.4712 22.2183 17.6314L22.8223 17.6119ZM26.7113 32.8053C28.8384 36.4893 31.5593 39.3548 33.7414 41.2967C34.6196 42.0799 35.5355 42.8198 36.4857 43.5139C36.8257 43.7613 37.1717 44.0001 37.5236 44.2303L37.5832 44.2684L37.599 44.2788L37.604 44.2815L37.605 44.2831L37.9246 43.7699C38.1367 43.4276 38.2429 43.2565 38.2435 43.2566L38.2404 43.2549L38.2283 43.2472L38.1771 43.214C38.1309 43.1849 38.0626 43.1402 37.972 43.0799C37.7099 42.9038 37.4511 42.7228 37.1959 42.5368C36.278 41.866 35.3933 41.1509 34.5449 40.3941C32.4248 38.5077 29.8007 35.7398 27.7577 32.2012L26.7113 32.8053ZM22.2183 17.6314C22.2216 17.7132 22.4791 25.4747 26.7113 32.8053L27.7577 32.2012C23.677 25.1333 23.4268 17.6151 23.4263 17.5924L22.2183 17.6314ZM25.5516 24.7555C24.5557 23.0307 24.0225 21.2445 23.7391 19.8777C23.4559 18.5136 23.4257 17.5865 23.426 17.5919L22.2186 17.6319C22.2204 17.6978 22.3544 21.6342 24.5049 25.3591L25.5516 24.7555ZM30.3735 30.6909C30.5855 30.3486 30.6918 30.1774 30.6923 30.1776L30.6915 30.1774L30.6867 30.1739L30.565 30.0948C30.4776 30.0365 30.3489 29.9476 30.1867 29.8298C29.736 29.4999 29.3014 29.1487 28.8843 28.7773C27.8398 27.8478 26.5519 26.4882 25.5516 24.7555L24.5049 25.3591C25.5893 27.2372 26.9748 28.6946 28.0818 29.6793C28.5283 30.0771 28.9937 30.4532 29.4762 30.8065C29.651 30.9337 29.829 31.0565 30.0098 31.175L30.0424 31.1953C30.0458 31.1979 30.0487 31.1997 30.0511 31.2007L30.0537 31.2027L30.0543 31.2037L30.3735 30.6909ZM30.3735 30.6909L30.0543 31.2037L30.0551 31.204L30.0608 31.2077L30.1816 31.2865C30.269 31.3449 30.3978 31.4337 30.5599 31.5515C30.8845 31.7875 31.3417 32.1408 31.8624 32.6041C32.9068 33.5336 34.1952 34.8928 35.1959 36.626L36.2422 36.0219C35.1576 34.1433 33.7724 32.6864 32.6653 31.7017C32.2188 31.3039 31.7535 30.9278 31.271 30.5745C31.0857 30.4403 30.897 30.3108 30.705 30.1863L30.696 30.1803L30.6935 30.1783L30.6923 30.1776L30.3735 30.6909ZM35.1959 36.626C36.1963 38.3587 36.7292 40.1541 37.0114 41.5237C37.1247 42.0706 37.2117 42.6225 37.2723 43.1777C37.2933 43.3789 37.3093 43.5806 37.3202 43.7827L37.3209 43.7886L37.9246 43.7699L38.5281 43.7508L38.5277 43.7489L38.5278 43.7454L38.528 43.7348L38.5262 43.6967L38.5182 43.5584C38.5099 43.439 38.4967 43.2674 38.4737 43.0512C38.4092 42.4566 38.3163 41.8654 38.1952 41.2797C37.8953 39.8276 37.3266 37.9001 36.2422 36.0219L35.1959 36.626Z" fill="#6A462F"/>
<path d="M38.8308 45.3395C44.3205 42.17 44.9844 33.0422 40.3135 24.9521C35.6427 16.8619 27.4059 12.873 21.9162 16.0425C16.4264 19.212 15.7626 28.3397 20.4334 36.4299C25.1043 44.52 33.341 48.509 38.8308 45.3395Z" stroke="black" stroke-width="0.5"/>
<path d="M22.8223 17.6119C22.8223 17.6119 22.9431 21.4457 25.0284 25.0576C27.1137 28.6695 30.3735 30.6909 30.3735 30.6909C30.3735 30.6909 33.6332 32.7124 35.7185 36.3243C37.8039 39.9362 37.9246 43.7699 37.9246 43.7699" stroke="black" stroke-width="0.5" stroke-linecap="round" stroke-linejoin="round"/>
<path d="M32.7319 45.2947C38.1071 48.6547 46.4787 44.957 51.4304 37.0357C56.382 29.1143 56.0387 19.9689 50.6635 16.6088C45.2883 13.2488 36.9167 16.9464 31.965 24.8678C27.0133 32.7892 27.3567 41.9346 32.7319 45.2947Z" fill="#A57939"/>
<path fill-rule="evenodd" clip-rule="evenodd" d="M32.8922 45.3949C32.8845 45.3901 32.8887 45.3777 32.898 45.38C38.0704 46.5943 44.9189 42.7353 49.2938 35.7365C53.6714 28.7335 54.1383 20.8819 50.7747 16.766C50.7477 16.7328 50.7874 16.6863 50.8238 16.7091C56.1102 20.0136 56.382 29.1143 51.4304 37.0357C46.4787 44.9571 38.1786 48.6994 32.8922 45.3949Z" fill="#6A462F"/>
<path fill-rule="evenodd" clip-rule="evenodd" d="M33.6925 43.7579C33.6925 43.7579 34.2031 36.1031 38.6242 29.0305C43.0302 21.982 49.658 18.1717 49.7028 18.1456C49.6707 18.164 46.3633 20.0689 44.1635 23.5881C41.9531 27.1241 41.6977 30.9518 41.6977 30.9518C41.6977 30.9518 41.4425 34.7789 39.2318 38.3155C37.0211 41.852 33.6925 43.7579 33.6925 43.7579Z" fill="#6A462F"/>
<path d="M33.6925 43.758L33.0901 43.7176C33.0829 43.8266 33.1054 43.9355 33.1552 44.0327C33.2049 44.1299 33.2801 44.2117 33.3727 44.2696C33.4653 44.3275 33.5718 44.3592 33.681 44.3614C33.7902 44.3635 33.8979 44.336 33.9927 44.2818L33.6925 43.758ZM49.7029 18.1456L50.0038 18.6693C50.1428 18.5895 50.2444 18.4578 50.2862 18.3031C50.3281 18.1485 50.3067 17.9835 50.227 17.8445C50.1472 17.7056 50.0155 17.604 49.8608 17.5622C49.7061 17.5203 49.5411 17.5416 49.4022 17.6214L49.7029 18.1456ZM38.112 28.7103C35.8571 32.3176 34.6038 36.0651 33.9132 38.9033C33.6338 40.0464 33.4102 41.2024 33.2432 42.3672C33.1844 42.7835 33.1359 43.2012 33.0978 43.6199L33.0921 43.6904L33.0904 43.7092L33.0904 43.7149L33.0894 43.7165L33.6925 43.758C34.0944 43.7845 34.2953 43.798 34.2955 43.7986L34.2955 43.7951L34.2966 43.7808L34.3019 43.72C34.306 43.6655 34.3134 43.5842 34.324 43.4759C34.3565 43.1618 34.395 42.8484 34.4394 42.5357C34.601 41.4104 34.8172 40.2935 35.0873 39.1892C35.758 36.4318 36.9706 32.8156 39.1365 29.3507L38.112 28.7103ZM49.4022 17.6214C49.3315 17.6627 42.5987 21.5327 38.112 28.7103L39.1365 29.3507C43.4624 22.4303 49.9837 18.681 50.0035 18.6698L49.4022 17.6214ZM44.6758 23.9083C45.7315 22.2194 47.0585 20.9103 48.1324 20.0185C49.204 19.1282 50.0084 18.6665 50.0038 18.6693L49.4019 17.6219C49.3445 17.6544 45.9315 19.6202 43.6516 23.2674L44.6758 23.9083ZM41.6977 30.9518C42.0995 30.9783 42.3005 30.9919 42.3006 30.9924L42.3004 30.9916L42.3013 30.9857L42.314 30.8412C42.3245 30.7366 42.3425 30.5812 42.3704 30.3828C42.4502 29.83 42.5564 29.2813 42.6886 28.7387C43.0192 27.3801 43.6153 25.6048 44.6758 23.9083L43.6516 23.2674C42.5021 25.1063 41.8654 27.0137 41.5154 28.4534C41.3738 29.0344 41.26 29.6218 41.1745 30.2137C41.1443 30.4278 41.1193 30.6426 41.0996 30.8579L41.097 30.8962C41.0962 30.9004 41.096 30.9038 41.0963 30.9064L41.0957 30.9096L41.0951 30.9106L41.6977 30.9518ZM41.6977 30.9518L41.0951 30.9106L41.0953 30.9115L41.0946 30.9182L41.0817 31.0619C41.0712 31.1664 41.0532 31.3219 41.0253 31.5203C40.9692 31.9177 40.8718 32.4873 40.7071 33.1644C40.3765 34.5229 39.781 36.2985 38.7201 37.9956L39.7446 38.636C40.8945 36.7965 41.5308 34.8897 41.8808 33.4499C42.0224 32.869 42.1362 32.2815 42.2217 31.6897C42.2533 31.4631 42.279 31.2357 42.2989 31.0077L42.2999 30.997L42.3005 30.9938L42.3006 30.9924L41.6977 30.9518ZM38.7201 37.9956C37.6596 39.6922 36.3243 41.0054 35.2474 41.8974C34.8177 42.254 34.3711 42.5899 33.9093 42.904C33.7415 43.017 33.5709 43.1258 33.3976 43.2302L33.3927 43.2336L33.6925 43.758L33.9927 44.2818L33.9941 44.2806L33.9973 44.279L34.0067 44.2742L34.0395 44.2548L34.1579 44.1828C34.2595 44.1195 34.4048 44.0272 34.5849 43.9054C35.0797 43.5694 35.5581 43.2099 36.0184 42.8282C37.16 41.8818 38.5951 40.475 39.7446 38.636L38.7201 37.9956Z" fill="#6A462F"/>
<path d="M32.7319 45.2947C38.1071 48.6547 46.4787 44.957 51.4304 37.0357C56.382 29.1143 56.0387 19.9689 50.6635 16.6088C45.2883 13.2488 36.9167 16.9464 31.965 24.8678C27.0133 32.7892 27.3567 41.9346 32.7319 45.2947Z" stroke="black" stroke-width="0.5"/>
<path d="M49.7028 18.1456C49.7028 18.1456 46.3742 20.0515 44.1635 23.588C41.9528 27.1246 41.6977 30.9517 41.6977 30.9517C41.6977 30.9517 41.4425 34.7789 39.2318 38.3154C37.0211 41.852 33.6925 43.7579 33.6925 43.7579" stroke="black" stroke-width="0.5" stroke-linecap="round" stroke-linejoin="round"/>
</svg>
