<svg width="1146" height="180" viewBox="0 0 1146 180" fill="none" xmlns="http://www.w3.org/2000/svg">
<g clip-path="url(#clip0_1_659)">
<path d="M0.184021 90.0339C0.184021 72.8392 3.90402 57.5459 11.344 44.1539C18.784 30.5966 29.1173 20.0979 42.344 12.6579C55.736 5.05257 70.864 1.2499 87.728 1.2499C108.395 1.2499 126.085 6.7059 140.8 17.6179C155.515 28.5299 165.352 43.4099 170.312 62.2579H123.688C120.216 54.9832 115.256 49.4446 108.808 45.6419C102.525 41.8392 95.3333 39.9379 87.232 39.9379C74.1707 39.9379 63.5893 44.4846 55.488 53.5779C47.3867 62.6712 43.336 74.8232 43.336 90.0339C43.336 105.245 47.3867 117.397 55.488 126.49C63.5893 135.583 74.1707 140.13 87.232 140.13C95.3333 140.13 102.525 138.229 108.808 134.426C115.256 130.623 120.216 125.085 123.688 117.81H170.312C165.352 136.658 155.515 151.538 140.8 162.45C126.085 173.197 108.395 178.57 87.728 178.57C70.864 178.57 55.736 174.85 42.344 167.41C29.1173 159.805 18.784 149.306 11.344 135.914C3.90402 122.522 0.184021 107.229 0.184021 90.0339ZM326.978 179.066C310.61 179.066 295.565 175.263 281.842 167.658C268.285 160.053 257.456 149.471 249.354 135.914C241.418 122.191 237.45 106.815 237.45 89.7859C237.45 72.7566 241.418 57.4632 249.354 43.9059C257.456 30.3486 268.285 19.7672 281.842 12.1619C295.565 4.55657 310.61 0.753906 326.978 0.753906C343.346 0.753906 358.309 4.55657 371.866 12.1619C385.589 19.7672 396.336 30.3486 404.106 43.9059C412.042 57.4632 416.01 72.7566 416.01 89.7859C416.01 106.815 412.042 122.191 404.106 135.914C396.17 149.471 385.424 160.053 371.866 167.658C358.309 175.263 343.346 179.066 326.978 179.066ZM326.978 140.378C340.866 140.378 351.944 135.749 360.21 126.49C368.642 117.231 372.858 104.997 372.858 89.7859C372.858 74.4099 368.642 62.1752 360.21 53.0819C351.944 43.8232 340.866 39.1939 326.978 39.1939C312.925 39.1939 301.682 43.7406 293.25 52.8339C284.984 61.9272 280.85 74.2446 280.85 89.7859C280.85 105.162 284.984 117.479 293.25 126.738C301.682 135.831 312.925 140.378 326.978 140.378ZM601.299 3.2339V37.2099H530.371V73.9139H583.443V106.898H530.371V177.33H487.963V3.2339H601.299ZM785.284 3.2339V37.2099H714.356V73.9139H767.428V106.898H714.356V177.33H671.948V3.2339H785.284ZM898.341 37.2099V72.4259H955.133V105.162H898.341V143.354H962.573V177.33H855.933V3.2339H962.573V37.2099H898.341ZM1080.87 37.2099V72.4259H1137.67V105.162H1080.87V143.354H1145.11V177.33H1038.47V3.2339H1145.11V37.2099H1080.87Z" fill="#D79A6F" fill-opacity="0.1"/>
</g>
<defs>
<clipPath id="clip0_1_659">
<rect width="1146" height="179" fill="white" transform="translate(0 0.329956)"/>
</clipPath>
</defs>
</svg>
