<svg width="191" height="62" viewBox="0 0 191 62" fill="none" xmlns="http://www.w3.org/2000/svg">
<g clip-path="url(#clip0_1_1195)">
<g clip-path="url(#clip1_1_1195)">
<path d="M1.88097 27.305L2.87097 22.883L11.121 25.061C13.849 25.809 15.444 27.602 15.906 30.44L16.302 33.014C16.346 33.41 16.368 33.718 16.368 33.938C16.368 35.126 16.06 36.259 15.444 37.337C14.85 38.415 13.992 39.295 12.87 39.977C11.748 40.659 10.45 41 8.97597 41H7.12797C5.47797 41 4.15797 40.483 3.16797 39.449C2.19997 38.393 1.71597 37.04 1.71597 35.39C1.71597 34.708 1.79297 34.059 1.94697 33.443L3.29997 27.668L1.88097 27.305ZM5.74197 34.004C5.78597 34.444 5.97297 34.796 6.30297 35.06C6.65497 35.324 7.09497 35.456 7.62297 35.456H9.53697C10.681 35.456 11.55 35.192 12.144 34.664L11.649 31.628C11.561 31.034 11.352 30.539 11.022 30.143C10.692 29.747 10.252 29.483 9.70197 29.351L6.99597 28.625L5.74197 34.004ZM36.8424 35.456C37.2824 35.456 37.6564 35.731 37.9644 36.281C38.2724 36.809 38.4264 37.458 38.4264 38.228C38.4264 38.998 38.2724 39.658 37.9644 40.208C37.6564 40.736 37.2824 41 36.8424 41H33.7734C33.5754 42.166 33.1354 43.178 32.4534 44.036C31.7714 44.916 30.8804 45.521 29.7804 45.851L23.9724 47.699L22.4544 43.343L28.1964 41.528L30.0114 40.967L29.8794 40.01L28.2294 40.406C27.7674 40.494 27.2614 40.538 26.7114 40.538H23.9724C22.8284 40.538 21.8384 40.164 21.0024 39.416C20.1884 38.646 19.7044 37.667 19.5504 36.479L19.0884 33.311C19.0224 32.783 18.9894 32.266 18.9894 31.76C18.9894 29.714 19.5284 28.02 20.6064 26.678C21.7064 25.314 23.2904 24.412 25.3584 23.972L30.7374 22.784L32.4864 24.269C33.3884 25.017 33.8394 25.985 33.8394 27.173L33.8724 35.456H36.8424ZM29.5824 35.621V27.767L25.3254 28.658C23.8954 28.966 23.1804 29.769 23.1804 31.067C23.1804 31.221 23.2024 31.452 23.2464 31.76L23.7744 35.621H29.5824ZM45.382 48.128C43.622 47.688 42.258 46.951 41.29 45.917C40.322 44.905 39.838 43.607 39.838 42.023V40.967L36.835 41C36.395 41 36.021 40.736 35.713 40.208C35.405 39.658 35.251 38.998 35.251 38.228C35.251 37.458 35.405 36.809 35.713 36.281C36.021 35.731 36.395 35.456 36.835 35.456H39.838V29.45C39.838 28.196 40.267 27.162 41.125 26.348L43.039 24.467H48.385C49.573 24.467 50.662 24.72 51.652 25.226C52.642 25.71 53.423 26.414 53.995 27.338C54.589 28.262 54.886 29.318 54.886 30.506C54.886 30.77 54.842 31.21 54.754 31.826L54.094 35.456H57.196C57.614 35.456 57.977 35.731 58.285 36.281C58.593 36.809 58.747 37.458 58.747 38.228C58.747 38.998 58.593 39.658 58.285 40.208C57.977 40.736 57.614 41 57.196 41H53.731L53.698 44.663C53.654 45.653 53.313 46.522 52.675 47.27L50.827 49.481L45.382 48.128ZM50.464 32.288C50.508 31.936 50.53 31.694 50.53 31.562C50.53 30.726 50.266 30.066 49.738 29.582C49.21 29.098 48.561 28.856 47.791 28.856H43.666V35.423H49.87L50.464 32.288ZM43.732 39.449V41.231C43.732 41.913 43.941 42.496 44.359 42.98C44.799 43.486 45.371 43.827 46.075 44.003L49.771 44.927L49.804 39.449H43.732ZM57.1699 41C56.7299 41 56.3559 40.736 56.0479 40.208C55.7399 39.658 55.5859 38.998 55.5859 38.228C55.5859 37.458 55.7399 36.809 56.0479 36.281C56.3559 35.731 56.7299 35.456 57.1699 35.456H67.5649H68.7199V33.278L68.0929 33.575C67.5649 33.839 67.0039 33.971 66.4099 33.971H62.7799C61.7019 33.971 60.7779 33.641 60.0079 32.981C59.2379 32.299 58.7759 31.419 58.6219 30.341L58.2589 27.668C58.1929 27.206 58.1599 26.766 58.1599 26.348C58.1599 24.588 58.6659 23.092 59.6779 21.86C60.6899 20.628 62.0869 19.814 63.8689 19.418L69.7429 18.164L71.4589 19.583C71.8769 19.935 72.1959 20.375 72.4159 20.903C72.6579 21.409 72.7789 21.948 72.7789 22.52V35.225C72.7789 36.325 72.5259 37.315 72.0199 38.195C71.5359 39.075 70.8539 39.768 69.9739 40.274C69.0939 40.758 68.1039 41 67.0039 41H57.1699ZM68.6869 22.817L64.2319 23.774C63.5279 23.928 63.0109 24.192 62.6809 24.566C62.3509 24.918 62.1859 25.402 62.1859 26.018C62.1859 26.15 62.2079 26.414 62.2519 26.81L62.6809 29.45H68.7199L68.6869 22.817ZM61.2949 11.795H70.5019V15.689H61.2949V11.795ZM79.6099 33.905C79.5439 33.377 79.5109 32.871 79.5109 32.387C79.5109 30.385 80.0719 28.713 81.1939 27.371C82.3379 26.007 83.8779 25.094 85.8139 24.632L90.1039 23.609V21.695L94.4269 20.606V33.179C94.4269 33.883 94.6359 34.444 95.0539 34.862C95.4939 35.258 96.0439 35.456 96.7039 35.456H97.8919C98.3319 35.456 98.7059 35.731 99.0139 36.281C99.3219 36.809 99.4759 37.458 99.4759 38.228C99.4759 38.976 99.3219 39.625 99.0139 40.175C98.7059 40.725 98.3319 41 97.8919 41H96.3409C95.4169 41 94.5699 40.846 93.7999 40.538C93.0299 40.208 92.3699 39.735 91.8199 39.119L90.4339 41H84.8239C84.2299 41 83.6469 40.879 83.0749 40.637C82.5249 40.373 82.0409 40.01 81.6229 39.548L80.2039 37.898L79.6099 33.905ZM90.3679 35.654C90.1919 34.994 90.1039 34.301 90.1039 33.575V28.361L86.2759 29.285C84.6479 29.703 83.8339 30.693 83.8339 32.255C83.8339 32.409 83.8559 32.64 83.8999 32.948L84.3289 35.654H90.3679ZM97.8713 41C97.4313 41 97.0573 40.725 96.7493 40.175C96.4413 39.625 96.2873 38.976 96.2873 38.228C96.2873 37.458 96.4413 36.809 96.7493 36.281C97.0573 35.731 97.4313 35.456 97.8713 35.456H100.874C102.194 35.456 103.228 35.192 103.976 34.664L101.963 25.094L106.22 23.048L108.002 31.496C108.178 32.332 108.266 33.102 108.266 33.806C108.266 35.236 107.947 36.501 107.309 37.601C106.693 38.679 105.802 39.515 104.636 40.109C103.492 40.703 102.172 41 100.676 41H97.8713ZM101.567 16.481H106.121V20.837H101.567V16.481ZM117.366 41C115.474 41 113.945 40.406 112.779 39.218C111.613 38.03 111.03 36.424 111.03 34.4L110.964 20.342L115.287 19.187V32.981C115.287 33.773 115.496 34.389 115.914 34.829C116.354 35.247 116.948 35.456 117.696 35.456H129.279L128.685 30.968C128.531 29.912 128.146 29.098 127.53 28.526C126.914 27.932 126.122 27.635 125.154 27.635C125 27.635 124.725 27.657 124.329 27.701L119.346 28.526L119.808 23.741L123.9 23.048C124.362 22.96 124.89 22.916 125.484 22.916C127.442 22.916 129.092 23.532 130.434 24.764C131.798 25.974 132.634 27.613 132.942 29.681L133.734 35.456H136.737L135.219 41H117.366ZM122.217 16.25H126.771V20.606H122.217V16.25Z" fill="#4F2C19"/>
<mask id="mask0_1_1195" style="mask-type:luminance" maskUnits="userSpaceOnUse" x="139" y="5" width="52" height="52">
<path d="M191 5H139V57H191V5Z" fill="white"/>
</mask>
<g mask="url(#mask0_1_1195)">
<path d="M155.142 10.489C156.103 10.521 157.104 11.3475 157.587 12.1188C159.67 15.4378 159.442 20.7903 156.592 23.6546C155.4 24.8501 154.017 24.5828 153.582 22.879C153.205 21.4081 153.36 19.9633 154.046 18.5447C154.73 17.127 155.722 15.2867 155.625 13.4144C155.582 12.5749 155.184 11.6481 154.92 10.7752C154.861 10.5776 154.935 10.4823 155.142 10.489Z" fill="#4F2C19"/>
<path d="M153.18 10.6749C155.224 11.2748 154.746 15.2025 154.073 16.501C153.02 18.5345 152.126 20.1265 152.446 22.3706C152.546 23.0707 152.904 23.7142 153.226 24.3751C153.297 24.5194 153.261 24.6302 153.119 24.7077C153.076 24.731 153.004 24.7402 152.903 24.7353C152.838 24.7314 152.77 24.7164 152.697 24.6903C150.761 23.9989 149.863 22.5972 149.388 20.5942C148.719 17.7676 149.052 14.5793 150.731 12.1318C151.22 11.4172 152.2 10.3873 153.18 10.6749Z" fill="#4F2C19"/>
<path d="M177.496 24.4288C177.479 24.3523 177.496 24.2758 177.546 24.1993C177.548 24.1958 177.548 24.1918 177.548 24.1878C177.547 24.1839 177.546 24.1802 177.543 24.1772C177.54 24.1743 177.536 24.1724 177.533 24.1716C177.529 24.1709 177.524 24.1715 177.521 24.1732L177.489 24.1921C177.467 24.2046 177.452 24.1998 177.443 24.1775C177.151 23.4673 177.619 23.3046 177.733 22.7744C177.943 21.7896 176.614 20.9515 175.783 20.7787C175.368 20.6915 174.804 20.6784 174.583 20.2456C174.565 20.2088 174.536 20.1851 174.496 20.1744C173.862 20.0011 173.266 19.7454 172.708 19.4075C172.681 19.3913 172.65 19.3828 172.619 19.3828L172.324 19.377C172.28 19.377 172.242 19.3625 172.21 19.3334L171.745 18.9252C174.665 15.8343 176.785 13.5999 178.105 12.2219C178.556 11.7513 179.074 11.6787 179.754 11.7469C181.576 11.9285 183.38 12.2509 185.2 12.4151C186.073 12.495 187.075 12.6591 187.334 13.5088C187.534 14.1639 186.722 14.848 186.319 15.2693C183.387 18.3321 180.447 21.3853 177.496 24.4288Z" fill="#4F2C19"/>
<path d="M171.745 18.9253L172.21 19.3334C172.242 19.3625 172.28 19.377 172.324 19.377L172.619 19.3828C172.65 19.3828 172.681 19.3913 172.708 19.4075C173.266 19.7454 173.862 20.0011 174.496 20.1744C174.536 20.1851 174.565 20.2088 174.584 20.2456C174.804 20.6784 175.368 20.6915 175.783 20.7787C176.614 20.9515 177.943 21.7896 177.733 22.7744C177.619 23.3046 177.151 23.4673 177.444 24.1776C177.452 24.1998 177.467 24.2047 177.489 24.1921L177.521 24.1732C177.525 24.1715 177.529 24.1709 177.533 24.1717C177.537 24.1724 177.54 24.1744 177.543 24.1773C177.546 24.1802 177.547 24.1839 177.548 24.1878C177.548 24.1918 177.548 24.1958 177.546 24.1993C177.496 24.2758 177.48 24.3523 177.496 24.4288C170.307 31.8192 163.209 39.2982 156.005 46.6755C155.243 47.4551 154.489 48.2423 153.743 49.0373C153.494 49.3007 153.158 49.4072 152.733 49.3569C150.607 49.1071 148.743 48.7788 146.375 48.6146C145.154 48.5304 144.431 47.4062 145.354 46.3821C146.332 45.2995 146.962 44.6115 147.244 44.3181C155.398 35.8412 163.691 27.4951 171.745 18.9253ZM168.996 25.7579L168.776 25.9249C168.774 25.9265 168.772 25.9285 168.771 25.9307C168.769 25.933 168.769 25.9355 168.768 25.9381C168.768 25.9407 168.768 25.9433 168.769 25.9458C168.77 25.9483 168.771 25.9506 168.773 25.9525L168.827 26.0222C168.926 26.1514 169.034 26.2655 169.126 26.3396C169.219 26.4136 169.29 26.4416 169.322 26.4173L169.329 26.4115C169.361 26.3861 169.352 26.3109 169.305 26.2024C169.257 26.0938 169.175 25.9607 169.077 25.832L169.024 25.7622C169.023 25.76 169.021 25.7582 169.019 25.7567C169.016 25.7553 169.014 25.7544 169.011 25.754C169.009 25.7536 169.006 25.7537 169.003 25.7544C169.001 25.755 168.998 25.7562 168.996 25.7579Z" fill="#4F2C19"/>
<path d="M168.996 25.7579C168.998 25.7562 169.001 25.755 169.003 25.7544C169.006 25.7537 169.009 25.7535 169.011 25.754C169.014 25.7544 169.016 25.7553 169.019 25.7567C169.021 25.7582 169.023 25.76 169.024 25.7622L169.077 25.832C169.175 25.9606 169.257 26.0938 169.305 26.2024C169.352 26.3109 169.361 26.3861 169.329 26.4115L169.322 26.4173C169.29 26.4416 169.219 26.4136 169.126 26.3396C169.034 26.2655 168.926 26.1514 168.827 26.0222L168.773 25.9525C168.771 25.9506 168.77 25.9483 168.769 25.9458C168.768 25.9433 168.768 25.9407 168.768 25.9381C168.769 25.9355 168.769 25.933 168.771 25.9307C168.772 25.9284 168.774 25.9265 168.776 25.9249L168.996 25.7579Z" fill="#4F2C19"/>
<path d="M175.4 49.7011C175.117 50.9372 173.351 49.0213 173.097 48.6626C171.493 46.3908 171.322 44.0131 171.845 41.3506C172.276 39.153 173.742 36.6096 176.139 36.0112C176.89 35.8238 176.782 36.9422 176.728 37.3635C176.247 41.0427 176.021 44.7756 175.609 48.4679C175.563 48.8834 175.493 49.2944 175.4 49.7011Z" fill="#4F2C19"/>
<path d="M176.469 50.208C176.336 50.0134 176.393 49.7098 176.412 49.476C176.6 47.211 176.803 44.9475 177.021 42.6855C177.173 41.108 177.33 38.4761 177.66 36.3772C177.695 36.1535 177.822 36.0717 178.041 36.1317C179.499 36.5341 180.677 38.2655 181.1 39.6323C181.707 41.598 181.726 43.5972 181.157 45.6297C180.656 47.4178 178.871 50.378 176.617 50.2894C176.588 50.2885 176.559 50.2806 176.534 50.2665C176.508 50.2524 176.486 50.2323 176.469 50.208Z" fill="#4F2C19"/>
</g>
</g>
</g>
<defs>
<clipPath id="clip0_1_1195">
<rect width="191" height="62" fill="white"/>
</clipPath>
<clipPath id="clip1_1_1195">
<rect width="191" height="62" fill="white"/>
</clipPath>
</defs>
</svg>
