<svg width="20" height="20" viewBox="0 0 20 20" fill="none" xmlns="http://www.w3.org/2000/svg">
<g clip-path="url(#clip0_1_1230)">
<path d="M0.706238 8.4375C0.706238 9.51823 0.908061 10.5339 1.31171 11.4844C1.72837 12.4349 2.28827 13.2617 2.99139 13.9648C3.69452 14.668 4.52134 15.2279 5.47186 15.6445C6.42238 16.0482 7.43801 16.25 8.51874 16.25C9.45624 16.25 10.3449 16.0938 11.1848 15.7812C12.0246 15.4688 12.7831 15.0391 13.4601 14.4922L18.2844 19.2969L19.3781 18.2031L14.5734 13.3789C15.1203 12.7018 15.55 11.9434 15.8625 11.1035C16.175 10.2637 16.3312 9.375 16.3312 8.4375C16.3312 7.35677 16.1294 6.34115 15.7258 5.39062C15.3091 4.4401 14.7492 3.61328 14.0461 2.91016C13.343 2.20703 12.5161 1.64713 11.5656 1.23047C10.6151 0.826822 9.59947 0.625 8.51874 0.625C7.43801 0.625 6.42238 0.826822 5.47186 1.23047C4.52134 1.64713 3.69452 2.20703 2.99139 2.91016C2.28827 3.61328 1.72837 4.4401 1.31171 5.39062C0.908061 6.34115 0.706238 7.35677 0.706238 8.4375ZM8.51874 14.6875C7.65936 14.6875 6.84556 14.5247 6.07733 14.1992C5.32212 13.8737 4.66132 13.4277 4.09491 12.8613C3.5285 12.2949 3.08254 11.6341 2.75702 10.8789C2.4315 10.1107 2.26874 9.29688 2.26874 8.4375C2.26874 7.57812 2.4315 6.76432 2.75702 5.99609C3.08254 5.24089 3.5285 4.58008 4.09491 4.01367C4.66132 3.44727 5.32212 3.0013 6.07733 2.67578C6.84556 2.35026 7.65936 2.1875 8.51874 2.1875C9.37811 2.1875 10.1919 2.35026 10.9601 2.67578C11.7154 3.0013 12.3762 3.44727 12.9426 4.01367C13.509 4.58008 13.9549 5.24089 14.2805 5.99609C14.606 6.76432 14.7687 7.57812 14.7687 8.4375C14.7687 9.29688 14.606 10.1107 14.2805 10.8789C13.9549 11.6341 13.509 12.2949 12.9426 12.8613C12.3762 13.4277 11.7154 13.8737 10.9601 14.1992C10.1919 14.5247 9.37811 14.6875 8.51874 14.6875Z" fill="#333333"/>
</g>
<defs>
<clipPath id="clip0_1_1230">
<rect width="19.69" height="20" fill="white" transform="matrix(1 0 0 -1 0.0800171 20)"/>
</clipPath>
</defs>
</svg>
