<svg width="21" height="20" viewBox="0 0 21 20" fill="none" xmlns="http://www.w3.org/2000/svg">
<path d="M7.51752 4.375C7.51752 3.64583 7.80398 2.99479 8.37689 2.42188C8.94981 1.84896 9.60085 1.5625 10.33 1.5625C11.0592 1.5625 11.7102 1.84896 12.2831 2.42188C12.8561 2.99479 13.1425 3.64583 13.1425 4.375V8.4375H14.705V6.5625H16.6191L17.166 18.4375H3.49408L4.04095 6.5625H4.39252V5H2.55658L1.85345 20H18.8066L18.1035 5H14.705V4.375C14.705 3.78906 14.5878 3.23568 14.3535 2.71484C14.1191 2.18099 13.8001 1.71224 13.3964 1.30859C12.9928 0.904947 12.524 0.585938 11.9902 0.351562C11.4693 0.117188 10.916 0 10.33 0C9.74408 0 9.19069 0.117188 8.66986 0.351562C8.13601 0.585938 7.66726 0.904947 7.26361 1.30859C6.85996 1.71224 6.54095 2.18099 6.30658 2.71484C6.0722 3.23568 5.95502 3.78906 5.95502 4.375V8.4375H7.51752V6.5625H11.2675V5H7.51752V4.375Z" fill="white"/>
</svg>
