<svg width="35" height="35" viewBox="0 0 35 35" fill="none" xmlns="http://www.w3.org/2000/svg">
<path d="M17.1531 0.421875C26.5184 0.421875 34.1063 8.00977 34.1063 17.375C34.1063 26.7402 26.5184 34.3281 17.1531 34.3281C7.78789 34.3281 0.200001 26.7402 0.200001 17.375C0.200001 8.00977 7.78789 0.421875 17.1531 0.421875ZM17.1531 31.0469C24.6727 31.0469 30.825 24.9629 30.825 17.375C30.825 9.85547 24.6727 3.70312 17.1531 3.70312C9.56524 3.70312 3.48125 9.85547 3.48125 17.375C3.48125 24.9629 9.56524 31.0469 17.1531 31.0469ZM21.323 23.9375L15.5125 19.6992C15.3074 19.5625 15.2391 19.2891 15.2391 19.084V7.80469C15.2391 7.39453 15.5809 6.98438 16.0594 6.98438H18.2469C18.657 6.98438 19.0672 7.39453 19.0672 7.80469V17.5117L23.5789 20.8613C23.9891 21.1348 24.0574 21.6133 23.784 22.0234L22.4852 23.7324C22.2117 24.1426 21.7332 24.2109 21.323 23.9375Z" fill="white"/>
</svg>
