<svg width="22" height="22" viewBox="0 0 22 22" fill="none" xmlns="http://www.w3.org/2000/svg">
<path d="M11.1625 5.99951C14.1156 5.99951 16.5531 8.43701 16.5531 11.3901C16.5531 14.3901 14.1156 16.7808 11.1625 16.7808C8.1625 16.7808 5.77188 14.3901 5.77188 11.3901C5.77188 8.43701 8.1625 5.99951 11.1625 5.99951ZM11.1625 14.9058C13.0844 14.9058 14.6313 13.3589 14.6313 11.3901C14.6313 9.46826 13.0844 7.92139 11.1625 7.92139C9.19375 7.92139 7.64688 9.46826 7.64688 11.3901C7.64688 13.3589 9.24063 14.9058 11.1625 14.9058ZM18.0063 5.81201C18.0063 6.51514 17.4438 7.07764 16.7406 7.07764C16.0375 7.07764 15.475 6.51514 15.475 5.81201C15.475 5.10889 16.0375 4.54639 16.7406 4.54639C17.4438 4.54639 18.0063 5.10889 18.0063 5.81201ZM21.5688 7.07764C21.6625 8.81201 21.6625 14.0151 21.5688 15.7495C21.475 17.437 21.1 18.8901 19.8813 20.1558C18.6625 21.3745 17.1625 21.7495 15.475 21.8433C13.7406 21.937 8.5375 21.937 6.80313 21.8433C5.11563 21.7495 3.6625 21.3745 2.39688 20.1558C1.17813 18.8901 0.803125 17.437 0.709375 15.7495C0.615625 14.0151 0.615625 8.81201 0.709375 7.07764C0.803125 5.39014 1.17813 3.89014 2.39688 2.67139C3.6625 1.45264 5.11563 1.07764 6.80313 0.983887C8.5375 0.890137 13.7406 0.890137 15.475 0.983887C17.1625 1.07764 18.6625 1.45264 19.8813 2.67139C21.1 3.89014 21.475 5.39014 21.5688 7.07764ZM19.3188 17.5776C19.8813 16.2183 19.7406 12.937 19.7406 11.3901C19.7406 9.89014 19.8813 6.60889 19.3188 5.20264C18.9438 4.31201 18.2406 3.56201 17.35 3.23389C15.9438 2.67139 12.6625 2.81201 11.1625 2.81201C9.61563 2.81201 6.33438 2.67139 4.975 3.23389C4.0375 3.60889 3.33438 4.31201 2.95938 5.20264C2.39688 6.60889 2.5375 9.89014 2.5375 11.3901C2.5375 12.937 2.39688 16.2183 2.95938 17.5776C3.33438 18.5151 4.0375 19.2183 4.975 19.5933C6.33438 20.1558 9.61563 20.0151 11.1625 20.0151C12.6625 20.0151 15.9438 20.1558 17.35 19.5933C18.2406 19.2183 18.9906 18.5151 19.3188 17.5776Z" fill="white"/>
</svg>
