<svg width="27" height="37" viewBox="0 0 27 37" fill="none" xmlns="http://www.w3.org/2000/svg">
<path d="M12.3167 35.1914C2.33625 20.8359 0.558904 19.332 0.558904 14C0.558904 6.75391 6.36945 0.875 13.6839 0.875C20.93 0.875 26.8089 6.75391 26.8089 14C26.8089 19.332 24.9632 20.8359 14.9827 35.1914C14.3675 36.1484 12.932 36.1484 12.3167 35.1914ZM13.6839 19.4688C16.6917 19.4688 19.1527 17.0762 19.1527 14C19.1527 10.9922 16.6917 8.53125 13.6839 8.53125C10.6077 8.53125 8.21515 10.9922 8.21515 14C8.21515 17.0762 10.6077 19.4688 13.6839 19.4688Z" fill="white"/>
</svg>
