<svg width="192" height="63" viewBox="0 0 192 63" fill="none" xmlns="http://www.w3.org/2000/svg">
<g clip-path="url(#clip0_1_1292)">
<g clip-path="url(#clip1_1_1292)">
<path d="M2.54702 27.6623L3.53702 23.2403L11.787 25.4183C14.515 26.1663 16.11 27.9593 16.572 30.7973L16.968 33.3713C17.012 33.7673 17.034 34.0753 17.034 34.2953C17.034 35.4833 16.726 36.6163 16.11 37.6943C15.516 38.7723 14.658 39.6523 13.536 40.3343C12.414 41.0163 11.116 41.3573 9.64202 41.3573H7.79402C6.14402 41.3573 4.82402 40.8403 3.83402 39.8063C2.86602 38.7503 2.38202 37.3973 2.38202 35.7473C2.38202 35.0653 2.45902 34.4163 2.61302 33.8003L3.96602 28.0253L2.54702 27.6623ZM6.40802 34.3613C6.45202 34.8013 6.63902 35.1533 6.96902 35.4173C7.32102 35.6813 7.76102 35.8133 8.28902 35.8133H10.203C11.347 35.8133 12.216 35.5493 12.81 35.0213L12.315 31.9853C12.227 31.3913 12.018 30.8963 11.688 30.5003C11.358 30.1043 10.918 29.8403 10.368 29.7083L7.66202 28.9823L6.40802 34.3613ZM37.5084 35.8133C37.9484 35.8133 38.3224 36.0883 38.6304 36.6383C38.9384 37.1663 39.0924 37.8153 39.0924 38.5853C39.0924 39.3553 38.9384 40.0153 38.6304 40.5653C38.3224 41.0933 37.9484 41.3573 37.5084 41.3573H34.4394C34.2414 42.5233 33.8014 43.5353 33.1194 44.3933C32.4374 45.2733 31.5464 45.8783 30.4464 46.2083L24.6384 48.0563L23.1204 43.7003L28.8624 41.8853L30.6774 41.3243L30.5454 40.3673L28.8954 40.7633C28.4334 40.8513 27.9274 40.8953 27.3774 40.8953H24.6384C23.4944 40.8953 22.5044 40.5213 21.6684 39.7733C20.8544 39.0033 20.3704 38.0243 20.2164 36.8363L19.7544 33.6683C19.6884 33.1403 19.6554 32.6233 19.6554 32.1173C19.6554 30.0713 20.1944 28.3773 21.2724 27.0353C22.3724 25.6713 23.9564 24.7693 26.0244 24.3293L31.4034 23.1413L33.1524 24.6263C34.0544 25.3743 34.5054 26.3423 34.5054 27.5303L34.5384 35.8133H37.5084ZM30.2484 35.9783V28.1243L25.9914 29.0153C24.5614 29.3233 23.8464 30.1263 23.8464 31.4243C23.8464 31.5783 23.8684 31.8093 23.9124 32.1173L24.4404 35.9783H30.2484ZM46.048 48.4853C44.288 48.0453 42.924 47.3083 41.956 46.2743C40.988 45.2623 40.504 43.9643 40.504 42.3803V41.3243L37.501 41.3573C37.061 41.3573 36.687 41.0933 36.379 40.5653C36.071 40.0153 35.917 39.3553 35.917 38.5853C35.917 37.8153 36.071 37.1663 36.379 36.6383C36.687 36.0883 37.061 35.8133 37.501 35.8133H40.504V29.8073C40.504 28.5533 40.933 27.5193 41.791 26.7053L43.705 24.8243H49.051C50.239 24.8243 51.328 25.0773 52.318 25.5833C53.308 26.0673 54.089 26.7713 54.661 27.6953C55.255 28.6193 55.552 29.6753 55.552 30.8633C55.552 31.1273 55.508 31.5673 55.42 32.1833L54.76 35.8133H57.862C58.28 35.8133 58.643 36.0883 58.951 36.6383C59.259 37.1663 59.413 37.8153 59.413 38.5853C59.413 39.3553 59.259 40.0153 58.951 40.5653C58.643 41.0933 58.28 41.3573 57.862 41.3573H54.397L54.364 45.0203C54.32 46.0103 53.979 46.8793 53.341 47.6273L51.493 49.8383L46.048 48.4853ZM51.13 32.6453C51.174 32.2933 51.196 32.0513 51.196 31.9193C51.196 31.0833 50.932 30.4233 50.404 29.9393C49.876 29.4553 49.227 29.2133 48.457 29.2133H44.332V35.7803H50.536L51.13 32.6453ZM44.398 39.8063V41.5883C44.398 42.2703 44.607 42.8533 45.025 43.3373C45.465 43.8433 46.037 44.1843 46.741 44.3603L50.437 45.2843L50.47 39.8063H44.398ZM57.8359 41.3573C57.3959 41.3573 57.0219 41.0933 56.7139 40.5653C56.4059 40.0153 56.2519 39.3553 56.2519 38.5853C56.2519 37.8153 56.4059 37.1663 56.7139 36.6383C57.0219 36.0883 57.3959 35.8133 57.8359 35.8133H68.2309H69.3859V33.6353L68.7589 33.9323C68.2309 34.1963 67.6699 34.3283 67.0759 34.3283H63.4459C62.3679 34.3283 61.4439 33.9983 60.6739 33.3383C59.9039 32.6563 59.4419 31.7763 59.2879 30.6983L58.9249 28.0253C58.8589 27.5633 58.8259 27.1233 58.8259 26.7053C58.8259 24.9453 59.3319 23.4493 60.3439 22.2173C61.3559 20.9853 62.7529 20.1713 64.5349 19.7753L70.4089 18.5213L72.1249 19.9403C72.5429 20.2923 72.8619 20.7323 73.0819 21.2603C73.3239 21.7663 73.4449 22.3053 73.4449 22.8773V35.5823C73.4449 36.6823 73.1919 37.6723 72.6859 38.5523C72.2019 39.4323 71.5199 40.1253 70.6399 40.6313C69.7599 41.1153 68.7699 41.3573 67.6699 41.3573H57.8359ZM69.3529 23.1743L64.8979 24.1313C64.1939 24.2853 63.6769 24.5493 63.3469 24.9233C63.0169 25.2753 62.8519 25.7593 62.8519 26.3753C62.8519 26.5073 62.8739 26.7713 62.9179 27.1673L63.3469 29.8073H69.3859L69.3529 23.1743ZM61.9609 12.1523H71.1679V16.0463H61.9609V12.1523ZM80.2759 34.2623C80.2099 33.7343 80.1769 33.2283 80.1769 32.7443C80.1769 30.7423 80.7379 29.0703 81.8599 27.7283C83.0039 26.3643 84.5439 25.4513 86.4799 24.9893L90.7699 23.9663V22.0523L95.0929 20.9633V33.5363C95.0929 34.2403 95.3019 34.8013 95.7199 35.2193C96.1599 35.6153 96.7099 35.8133 97.3699 35.8133H98.5579C98.9979 35.8133 99.3719 36.0883 99.6799 36.6383C99.9879 37.1663 100.142 37.8153 100.142 38.5853C100.142 39.3333 99.9879 39.9823 99.6799 40.5323C99.3719 41.0823 98.9979 41.3573 98.5579 41.3573H97.0069C96.0829 41.3573 95.2359 41.2033 94.4659 40.8953C93.6959 40.5653 93.0359 40.0923 92.4859 39.4763L91.0999 41.3573H85.4899C84.8959 41.3573 84.3129 41.2363 83.7409 40.9943C83.1909 40.7303 82.7069 40.3673 82.2889 39.9053L80.8699 38.2553L80.2759 34.2623ZM91.0339 36.0113C90.8579 35.3513 90.7699 34.6583 90.7699 33.9323V28.7183L86.9419 29.6423C85.3139 30.0603 84.4999 31.0503 84.4999 32.6123C84.4999 32.7663 84.5219 32.9973 84.5659 33.3053L84.9949 36.0113H91.0339ZM98.5373 41.3573C98.0973 41.3573 97.7233 41.0823 97.4153 40.5323C97.1073 39.9823 96.9533 39.3333 96.9533 38.5853C96.9533 37.8153 97.1073 37.1663 97.4153 36.6383C97.7233 36.0883 98.0973 35.8133 98.5373 35.8133H101.54C102.86 35.8133 103.894 35.5493 104.642 35.0213L102.629 25.4513L106.886 23.4053L108.668 31.8533C108.844 32.6893 108.932 33.4593 108.932 34.1633C108.932 35.5933 108.613 36.8583 107.975 37.9583C107.359 39.0363 106.468 39.8723 105.302 40.4663C104.158 41.0603 102.838 41.3573 101.342 41.3573H98.5373ZM102.233 16.8383H106.787V21.1943H102.233V16.8383ZM118.032 41.3573C116.14 41.3573 114.611 40.7633 113.445 39.5753C112.279 38.3873 111.696 36.7813 111.696 34.7573L111.63 20.6993L115.953 19.5443V33.3383C115.953 34.1303 116.162 34.7463 116.58 35.1863C117.02 35.6043 117.614 35.8133 118.362 35.8133H129.945L129.351 31.3253C129.197 30.2693 128.812 29.4553 128.196 28.8833C127.58 28.2893 126.788 27.9923 125.82 27.9923C125.666 27.9923 125.391 28.0143 124.995 28.0583L120.012 28.8833L120.474 24.0983L124.566 23.4053C125.028 23.3173 125.556 23.2733 126.15 23.2733C128.108 23.2733 129.758 23.8893 131.1 25.1213C132.464 26.3313 133.3 27.9703 133.608 30.0383L134.4 35.8133H137.403L135.885 41.3573H118.032ZM122.883 16.6073H127.437V20.9633H122.883V16.6073Z" fill="white"/>
<mask id="mask0_1_1292" style="mask-type:luminance" maskUnits="userSpaceOnUse" x="139" y="5" width="53" height="53">
<path d="M191.666 5.35742H139.666V57.3574H191.666V5.35742Z" fill="white"/>
</mask>
<g mask="url(#mask0_1_1292)">
<path d="M155.808 10.8465C156.769 10.8785 157.77 11.705 158.253 12.4762C160.336 15.7953 160.108 21.1478 157.258 24.0121C156.066 25.2076 154.683 24.9403 154.248 23.2365C153.871 21.7656 154.026 20.3208 154.712 18.9022C155.396 17.4845 156.388 15.6442 156.291 13.7719C156.248 12.9323 155.85 12.0056 155.586 11.1327C155.527 10.9351 155.601 10.8397 155.808 10.8465Z" fill="white"/>
<path d="M153.846 11.0324C155.89 11.6323 155.412 15.5599 154.739 16.8584C153.686 18.8919 152.792 20.4839 153.112 22.728C153.212 23.4281 153.57 24.0716 153.892 24.7325C153.963 24.8768 153.927 24.9876 153.785 25.0651C153.742 25.0884 153.67 25.0976 153.569 25.0927C153.504 25.0888 153.436 25.0738 153.363 25.0477C151.427 24.3563 150.529 22.9546 150.054 20.9516C149.385 18.125 149.718 14.9367 151.397 12.4892C151.886 11.7746 152.866 10.7448 153.846 11.0324Z" fill="white"/>
<path d="M178.162 24.7864C178.145 24.7099 178.162 24.6334 178.212 24.5569C178.214 24.5534 178.214 24.5494 178.214 24.5454C178.213 24.5415 178.212 24.5378 178.209 24.5348C178.206 24.5319 178.202 24.53 178.199 24.5292C178.195 24.5285 178.19 24.5291 178.187 24.5308L178.155 24.5497C178.133 24.5622 178.118 24.5574 178.109 24.5351C177.817 23.8249 178.285 23.6622 178.399 23.132C178.609 22.1472 177.28 21.3091 176.449 21.1363C176.034 21.0491 175.47 21.036 175.249 20.6032C175.231 20.5664 175.202 20.5427 175.162 20.532C174.528 20.3587 173.932 20.103 173.374 19.7651C173.347 19.7489 173.316 19.7404 173.285 19.7404L172.99 19.7346C172.946 19.7346 172.908 19.7201 172.876 19.691L172.411 19.2828C175.331 16.1919 177.451 13.9575 178.771 12.5795C179.222 12.1089 179.74 12.0363 180.42 12.1045C182.242 12.2861 184.046 12.6085 185.866 12.7727C186.739 12.8526 187.741 13.0167 188 13.8664C188.2 14.5215 187.388 15.2056 186.985 15.6269C184.053 18.6897 181.113 21.7429 178.162 24.7864Z" fill="white"/>
<path d="M172.411 19.2827L172.876 19.6908C172.908 19.7199 172.946 19.7344 172.99 19.7344L173.285 19.7402C173.316 19.7402 173.347 19.7487 173.374 19.7649C173.932 20.1028 174.528 20.3585 175.162 20.5318C175.202 20.5425 175.231 20.5662 175.25 20.603C175.47 21.0358 176.034 21.0489 176.449 21.1361C177.28 21.3089 178.609 22.147 178.399 23.1318C178.285 23.662 177.817 23.8247 178.11 24.535C178.118 24.5572 178.133 24.5621 178.155 24.5495L178.187 24.5306C178.191 24.5289 178.195 24.5283 178.199 24.5291C178.203 24.5298 178.206 24.5318 178.209 24.5347C178.212 24.5376 178.213 24.5413 178.214 24.5452C178.214 24.5492 178.214 24.5532 178.212 24.5567C178.162 24.6332 178.146 24.7097 178.162 24.7862C170.973 32.1766 163.875 39.6556 156.671 47.0329C155.909 47.8125 155.155 48.5997 154.409 49.3947C154.16 49.6581 153.824 49.7646 153.399 49.7143C151.273 49.4645 149.409 49.1362 147.041 48.972C145.82 48.8878 145.097 47.7636 146.02 46.7395C146.998 45.6569 147.628 44.9689 147.91 44.6755C156.064 36.1986 164.357 27.8525 172.411 19.2827ZM169.662 26.1153L169.442 26.2823C169.44 26.2839 169.438 26.2859 169.437 26.2881C169.435 26.2904 169.435 26.2929 169.434 26.2955C169.434 26.2981 169.434 26.3007 169.435 26.3032C169.436 26.3057 169.437 26.308 169.439 26.3099L169.493 26.3796C169.592 26.5088 169.7 26.6229 169.792 26.697C169.885 26.771 169.956 26.799 169.988 26.7747L169.995 26.7689C170.027 26.7435 170.018 26.6683 169.971 26.5598C169.923 26.4512 169.841 26.3181 169.743 26.1894L169.69 26.1196C169.689 26.1174 169.687 26.1156 169.685 26.1141C169.682 26.1127 169.68 26.1118 169.677 26.1114C169.675 26.111 169.672 26.1111 169.669 26.1118C169.667 26.1124 169.664 26.1136 169.662 26.1153Z" fill="white"/>
<path d="M169.662 26.1155C169.664 26.1138 169.667 26.1126 169.669 26.112C169.672 26.1113 169.675 26.1111 169.677 26.1116C169.68 26.112 169.682 26.1129 169.685 26.1143C169.687 26.1158 169.689 26.1176 169.69 26.1198L169.743 26.1896C169.841 26.3182 169.923 26.4514 169.971 26.56C170.018 26.6685 170.027 26.7437 169.995 26.7691L169.988 26.7749C169.956 26.7992 169.885 26.7712 169.792 26.6972C169.7 26.6231 169.592 26.509 169.493 26.3798L169.439 26.3101C169.437 26.3082 169.436 26.3059 169.435 26.3034C169.434 26.3009 169.434 26.2983 169.434 26.2957C169.435 26.2931 169.435 26.2906 169.437 26.2883C169.438 26.286 169.44 26.2841 169.442 26.2825L169.662 26.1155Z" fill="white"/>
<path d="M176.066 50.0585C175.783 51.2946 174.017 49.3787 173.763 49.02C172.159 46.7482 171.988 44.3705 172.511 41.708C172.942 39.5104 174.408 36.967 176.805 36.3686C177.556 36.1812 177.448 37.2996 177.394 37.7209C176.913 41.4001 176.687 45.133 176.275 48.8253C176.229 49.2408 176.159 49.6518 176.066 50.0585Z" fill="white"/>
<path d="M177.135 50.5656C177.002 50.371 177.059 50.0674 177.078 49.8336C177.266 47.5686 177.469 45.3051 177.687 43.0431C177.839 41.4656 177.996 38.8337 178.326 36.7348C178.361 36.5111 178.488 36.4293 178.707 36.4893C180.165 36.8917 181.343 38.6231 181.766 39.9899C182.373 41.9556 182.392 43.9548 181.823 45.9873C181.322 47.7754 179.537 50.7356 177.283 50.647C177.254 50.6461 177.225 50.6382 177.2 50.6241C177.174 50.61 177.152 50.5899 177.135 50.5656Z" fill="white"/>
</g>
</g>
</g>
<defs>
<clipPath id="clip0_1_1292">
<rect width="191" height="62" fill="white" transform="translate(0.666016 0.357422)"/>
</clipPath>
<clipPath id="clip1_1_1292">
<rect width="191" height="62" fill="white" transform="translate(0.666016 0.357422)"/>
</clipPath>
</defs>
</svg>
