<svg width="36" height="36" viewBox="0 0 36 36" fill="none" xmlns="http://www.w3.org/2000/svg">
<path d="M34.6277 25.6211C35.1746 25.8945 35.5848 26.5098 35.5848 27.1934C35.5848 27.2617 35.5848 27.3984 35.5848 27.5352L33.9441 34.6445C33.7391 35.3965 33.1238 35.875 32.3719 35.875C14.8035 35.875 0.653126 21.7246 0.653126 4.15625C0.653126 3.4043 1.13164 2.78906 1.88359 2.58398L8.99297 0.943359C9.12969 0.943359 9.26641 0.875 9.33477 0.875C10.0184 0.875 10.6336 1.28516 10.907 1.90039L14.1883 9.55664C14.2566 9.76172 14.325 9.9668 14.325 10.1719C14.325 10.7188 14.0516 11.1973 13.7098 11.4707L9.53984 14.8887C12.0691 20.2207 16.3074 24.459 21.6395 26.9883L25.0574 22.8184C25.3309 22.4766 25.8094 22.2031 26.2879 22.2031C26.5613 22.2031 26.7664 22.2715 26.9715 22.3398L34.6277 25.6211Z" fill="white"/>
</svg>
