<svg width="24" height="25" viewBox="0 0 24 25" fill="none" xmlns="http://www.w3.org/2000/svg">
<path d="M12.1745 0.765137C18.5964 0.765137 23.7995 5.96826 23.7995 12.3901C23.7995 18.812 18.5964 24.0151 12.1745 24.0151C5.75266 24.0151 0.549537 18.812 0.549537 12.3901C0.549537 5.96826 5.75266 0.765137 12.1745 0.765137ZM17.8464 8.73389C18.0339 7.98389 17.5652 7.65576 17.0495 7.84326L5.84641 12.1558C5.09641 12.437 5.09641 12.9058 5.70579 13.0933L8.56516 13.9839L15.2214 9.76514C15.5495 9.57764 15.8308 9.71826 15.5964 9.90576L10.2058 14.7808L10.0183 17.7339C10.2995 17.7339 10.4402 17.5933 10.5808 17.4526L11.987 16.0933L14.8933 18.2495C15.4558 18.5308 15.8308 18.3901 15.9714 17.7339L17.8464 8.73389Z" fill="white"/>
</svg>
