<svg width="22" height="22" viewBox="0 0 22 22" fill="none" xmlns="http://www.w3.org/2000/svg">
<path d="M18.475 3.98389C20.4438 5.95264 21.6625 8.53076 21.6625 11.3433C21.6625 17.062 16.8813 21.7495 11.1156 21.7495C9.38125 21.7495 7.69375 21.2808 6.14688 20.4839L0.6625 21.8901L2.11563 16.4995C1.225 14.9526 0.709375 13.1714 0.709375 11.2964C0.709375 5.57764 5.39688 0.890137 11.1156 0.890137C13.9281 0.890137 16.5531 2.01514 18.475 3.98389ZM11.1156 19.9683C15.8969 19.9683 19.8813 16.0776 19.8813 11.3433C19.8813 8.99951 18.8969 6.84326 17.2563 5.20264C15.6156 3.56201 13.4594 2.67139 11.1625 2.67139C6.38125 2.67139 2.49063 6.56201 2.49063 11.2964C2.49063 12.937 2.95938 14.5308 3.80313 15.937L4.0375 16.2651L3.14688 19.4526L6.42813 18.562L6.70938 18.7495C8.06875 19.5464 9.56875 19.9683 11.1156 19.9683ZM15.8969 13.4995C16.1313 13.6401 16.3188 13.687 16.3656 13.8276C16.4594 13.9214 16.4594 14.437 16.225 15.0464C15.9906 15.6558 14.9594 16.2183 14.4906 16.2651C13.6469 16.4058 12.9906 16.3589 11.35 15.6089C8.725 14.4839 7.0375 11.8589 6.89688 11.7183C6.75625 11.5308 5.86563 10.312 5.86563 8.99951C5.86563 7.73389 6.52188 7.12451 6.75625 6.84326C6.99063 6.56201 7.27188 6.51514 7.45938 6.51514C7.6 6.51514 7.7875 6.51514 7.92813 6.51514C8.11563 6.51514 8.30313 6.46826 8.5375 6.98389C8.725 7.49951 9.2875 8.76514 9.33438 8.90576C9.38125 9.04639 9.42813 9.18701 9.33438 9.37451C8.86563 10.3589 8.30313 10.312 8.58438 10.7808C9.61563 12.5151 10.6 13.1245 12.1469 13.8745C12.3813 14.0151 12.5219 13.9683 12.7094 13.8276C12.85 13.6401 13.3656 13.0308 13.5063 12.7964C13.6938 12.5151 13.8813 12.562 14.1156 12.6558C14.35 12.7495 15.6156 13.3589 15.8969 13.4995Z" fill="white"/>
</svg>
