<svg width="104" height="310" viewBox="0 0 104 310" fill="none" xmlns="http://www.w3.org/2000/svg">
<path d="M2.46602 147.864L6.66961 148.809L3.06967 145.964L3.52639 144.526L7.78748 145.291L4.12685 142.637L4.65385 140.978L10.3767 145.336L9.872 146.924L5.563 146.276L9.13104 149.256L8.6264 150.845L1.93903 149.522L2.46602 147.864Z" fill="#625C4B"/>
<path d="M6.37744 137.184L7.28981 135.294L13.7821 137.347L13.0348 138.895L11.9228 138.515L10.9967 140.434L11.8382 141.374L11.0909 142.923L6.37744 137.184ZM7.99582 137.066L9.94123 139.218L10.5189 138.021L7.99582 137.066Z" fill="#625C4B"/>
<path d="M15.3106 134.55C14.9838 135.067 14.6458 135.349 14.2965 135.396C13.9472 135.443 13.5489 135.264 13.1017 134.856L9.33441 131.427L10.2358 130L13.7926 133.238C14.0474 133.47 14.265 133.443 14.4452 133.158L15.527 131.446L16.6346 132.454L15.3106 134.55Z" fill="#625C4B"/>
<path d="M13.9915 124.595L15.7496 126.644L16.2273 126.054L15.2057 123.094L16.3203 121.717L17.544 125.581L20.8167 126.831L19.702 128.208L17.2025 127.191L16.7248 127.781L18.4348 129.774L17.3732 131.086L12.93 125.907L13.9915 124.595Z" fill="#625C4B"/>
<path d="M25.1506 113.792C26.2447 112.989 27.0647 113.124 27.6104 114.195C27.786 114.54 27.8692 114.879 27.8601 115.213C27.8534 115.536 27.7385 115.823 27.5153 116.072C27.8459 115.942 28.1573 115.941 28.4493 116.071C28.7414 116.201 28.9911 116.47 29.1986 116.877C29.5018 117.473 29.5815 118.004 29.4378 118.471C29.2908 118.931 28.9282 119.374 28.35 119.798L25.9859 121.533L22.8886 115.452L25.1506 113.792ZM26.3772 116.223C26.4906 116.14 26.5545 116.029 26.569 115.889C26.586 115.739 26.5561 115.588 26.4795 115.438C26.3774 115.238 26.2672 115.121 26.1488 115.087C26.0329 115.043 25.9211 115.06 25.8134 115.139L24.929 115.788L25.4843 116.878L26.3772 116.223ZM27.6277 118.495C27.7807 118.382 27.8698 118.244 27.8949 118.079C27.92 117.914 27.8832 117.735 27.7842 117.541C27.6948 117.365 27.5805 117.256 27.4412 117.211C27.3076 117.163 27.1671 117.193 27.0197 117.301L26.0587 118.006L26.6667 119.2L27.6277 118.495Z" fill="#625C4B"/>
<path d="M29.9801 110.716L31.5672 115.009C31.7476 115.498 32.1481 115.576 32.7688 115.246C33.4019 114.909 33.6282 114.496 33.4478 114.008L31.8608 109.714L33.3317 108.931L34.9187 113.225C35.2064 114.003 35.2126 114.663 34.9373 115.204C34.6619 115.745 34.1146 116.234 33.2954 116.67C32.4823 117.103 31.8162 117.261 31.2971 117.142C30.7756 117.018 30.3721 116.569 30.0869 115.798L28.4998 111.504L29.9801 110.716Z" fill="#625C4B"/>
<path d="M34.7569 108.343L39.6521 106.589L40.0136 108.043L38.3554 108.637L39.6409 113.806L38.0522 114.375L36.7667 109.206L35.1184 109.797L34.7569 108.343Z" fill="#625C4B"/>
<path d="M47.4065 106.814C47.3831 106.252 47.5203 105.828 47.818 105.543C48.1225 105.25 48.5204 105.088 49.0117 105.059L49.8119 105.011C50.6969 104.972 51.4252 104.974 51.997 105.017L52.0557 106.43L49.5499 106.58C49.3955 106.589 49.2814 106.638 49.2078 106.727C49.1338 106.809 49.0992 106.91 49.1042 107.029L49.1406 107.904L51.6604 107.837L51.7152 109.155L49.2032 109.411L49.3058 111.877L47.6213 111.978L47.4065 106.814Z" fill="#625C4B"/>
<path d="M55.0264 105.09L54.7743 111.91L53.0891 111.82L53.3412 105L55.0264 105.09Z" fill="#625C4B"/>
<path d="M60.0149 105.771C60.7075 105.891 61.1916 106.163 61.466 106.587C61.7475 107.013 61.8428 107.607 61.7524 108.368C61.692 108.871 61.5651 109.255 61.3707 109.521C61.1769 109.78 60.9144 109.966 60.5823 110.08L61.4513 112.934L59.778 112.646L59.074 110.099L58.3062 109.956L58.0209 112.344L56.358 112.058L57.1666 105.282L60.0149 105.771ZM59.356 108.8C59.5777 108.839 59.7486 108.8 59.8684 108.685C59.9958 108.565 60.0764 108.365 60.1096 108.086C60.1423 107.813 60.1135 107.609 60.0236 107.472C59.9343 107.336 59.7748 107.248 59.5461 107.209L58.652 107.055L58.462 108.647L59.356 108.8Z" fill="#625C4B"/>
<path d="M64.0983 113.984C63.777 113.88 63.4215 113.739 63.0311 113.56C62.6472 113.384 62.3336 113.216 62.0896 113.056L62.3793 111.77C62.5448 111.831 62.6772 111.881 62.7763 111.921C62.8748 111.96 62.9538 111.993 63.012 112.019C63.581 112.234 64.0259 112.393 64.3471 112.497C64.6483 112.595 64.884 112.631 65.055 112.605C65.2271 112.573 65.336 112.457 65.3806 112.258L65.4106 112.125C65.4432 111.981 65.422 111.852 65.3469 111.74C65.2717 111.627 65.1606 111.547 65.0136 111.499L64.5219 111.339C63.8397 111.118 63.3654 110.802 63.0991 110.391C62.8394 109.983 62.7871 109.436 62.9418 108.75L63.0109 108.441C63.1563 107.797 63.4525 107.374 63.9001 107.173C64.3471 106.972 64.9254 106.987 65.6344 107.217C65.9219 107.311 66.2573 107.445 66.6411 107.621C67.025 107.798 67.343 107.963 67.5951 108.119L67.3027 109.415C66.7468 109.176 66.1473 108.952 65.5053 108.743C65.2113 108.648 64.9809 108.617 64.8154 108.652C64.6515 108.68 64.5448 108.803 64.4953 109.023L64.4718 109.126C64.3945 109.469 64.56 109.706 64.9679 109.839L65.5696 110.034C66.1451 110.221 66.5535 110.526 66.7952 110.951C67.0381 111.369 67.098 111.852 66.9744 112.401L66.9025 112.719C66.7865 113.234 66.6117 113.612 66.3781 113.852C66.1446 114.093 65.8429 114.22 65.4743 114.232C65.1116 114.247 64.6532 114.164 64.0983 113.984Z" fill="#625C4B"/>
<path d="M69.1415 108.572L73.8243 110.833L73.3484 112.253L71.7622 111.487L70.0694 116.538L68.5497 115.804L70.2425 110.754L68.6656 109.992L69.1415 108.572Z" fill="#625C4B"/>
<path d="M78.7051 118.335C79.0628 117.738 79.3993 117.282 79.7157 116.97C80.0407 116.655 80.356 116.465 80.662 116.4C80.9392 116.328 81.2169 116.343 81.4946 116.445C81.7777 116.552 82.0712 116.736 82.375 116.998C82.6413 117.227 82.9163 117.51 83.1994 117.845C83.4918 118.18 83.7123 118.479 83.8604 118.744L83.1842 119.876C82.8635 119.453 82.4289 119.006 81.8801 118.533C81.7097 118.386 81.5561 118.286 81.4189 118.231C81.2904 118.176 81.1673 118.166 81.0497 118.201C80.8918 118.249 80.7263 118.371 80.5515 118.568C80.386 118.764 80.1878 119.055 79.9569 119.441C79.726 119.827 79.5589 120.14 79.4554 120.38C79.3574 120.625 79.3122 120.842 79.3198 121.032C79.3334 121.199 79.3814 121.355 79.4641 121.499C79.5507 121.638 79.6819 121.783 79.8578 121.934C80.3958 122.398 80.8728 122.768 81.2888 123.044L80.6228 124.157C80.3718 124.078 80.0816 123.929 79.7527 123.709C79.4276 123.484 79.108 123.236 78.7933 122.965C78.4846 122.699 78.2406 122.425 78.062 122.143C77.8889 121.866 77.7811 121.553 77.7386 121.206C77.6651 120.493 77.9869 119.536 78.7051 118.335Z" fill="#625C4B"/>
<path d="M83.2896 122.618C83.8243 121.929 84.2991 121.453 84.7135 121.19C85.1317 120.922 85.5504 120.85 85.9696 120.976C86.3884 121.102 86.8507 121.448 87.357 122.014C87.8629 122.581 88.1814 123.113 88.311 123.611C88.4455 124.103 88.4134 124.607 88.2146 125.122C88.0213 125.642 87.6614 126.241 87.1354 126.919C86.6094 127.596 86.1368 128.069 85.7181 128.338C85.3037 128.601 84.8872 128.669 84.4684 128.544C84.0497 128.418 83.5896 128.074 83.0881 127.513C82.5817 126.947 82.2594 126.415 82.1205 125.917C81.986 125.425 82.0138 124.921 82.2033 124.407C82.4015 123.892 82.7636 123.295 83.2896 122.618ZM84.4004 123.86C84.0813 124.271 83.8564 124.606 83.7257 124.864C83.5994 125.117 83.5559 125.359 83.5956 125.591C83.6354 125.822 83.772 126.068 84.0067 126.33C84.2408 126.592 84.4532 126.736 84.6432 126.762C84.8382 126.793 85.038 126.721 85.2438 126.547C85.4496 126.372 85.7099 126.082 86.0246 125.676C86.3562 125.249 86.5855 124.908 86.7118 124.655C86.8425 124.397 86.8882 124.157 86.8496 123.937C86.8104 123.717 86.671 123.473 86.4319 123.206C86.1929 122.939 85.9784 122.787 85.7878 122.75C85.6021 122.719 85.4061 122.79 85.2008 122.965C84.9993 123.134 84.7325 123.432 84.4004 123.86Z" fill="#625C4B"/>
<path d="M89.3035 127.158C89.702 126.761 90.0837 126.595 90.4491 126.66C90.8237 126.727 91.1504 126.963 91.4308 127.367L91.8871 128.027C92.381 128.765 92.7632 129.396 93.0322 129.919L92.0314 130.917L90.6032 128.852C90.515 128.725 90.4191 128.66 90.3151 128.656C90.2166 128.647 90.1246 128.684 90.0402 128.769L89.42 129.387L90.7948 131.519L89.8616 132.45L88.3522 130.452L86.6043 132.195L85.6438 130.807L89.3035 127.158Z" fill="#625C4B"/>
<path d="M92.9416 132.802C93.3853 132.456 93.7866 132.338 94.1444 132.446C94.5114 132.556 94.8114 132.828 95.0455 133.261L95.4261 133.966C95.8361 134.754 96.1454 135.423 96.3551 135.972L95.2394 136.839L94.0469 134.63C93.9734 134.494 93.8852 134.418 93.7817 134.402C93.6837 134.381 93.5879 134.408 93.4937 134.481L92.8027 135.018L93.9336 137.288L92.8925 138.098L91.6119 135.944L89.6636 137.46L88.8621 135.975L92.9416 132.802Z" fill="#625C4B"/>
<path d="M92.1714 143.201C91.7255 142.107 91.9634 141.29 92.8852 140.749L96.0053 138.917C96.4904 138.632 96.9064 138.566 97.2538 138.717C97.6099 138.871 97.8805 139.176 98.0662 139.632C98.2067 139.977 98.3641 140.381 98.5378 140.844L99.0833 142.46L97.8555 143.181L96.92 140.886C96.7953 140.58 96.6058 140.501 96.351 140.651L95.7782 140.987L96.6472 143.37L95.5011 144.043L94.4774 141.751L93.9405 142.066C93.7951 142.151 93.7004 142.251 93.6568 142.365C93.6132 142.48 93.6181 142.602 93.671 142.732L94.6266 145.077L93.3982 145.797C93.237 145.513 93.1014 145.253 92.9914 145.02C92.7181 144.478 92.4447 143.872 92.1714 143.201Z" fill="#625C4B"/>
<path d="M94.1808 149.32C93.8541 148.185 94.1841 147.412 95.1713 147.003L98.5124 145.616C99.0324 145.4 99.4582 145.39 99.7903 145.585C100.131 145.784 100.37 146.119 100.506 146.592C100.609 146.951 100.723 147.369 100.846 147.847L101.216 149.509L99.9009 150.055L99.2142 147.673C99.1228 147.356 98.9409 147.254 98.6681 147.367L98.0544 147.621L98.6643 150.08L97.437 150.59L96.661 148.2L96.0866 148.438C95.9303 148.503 95.8241 148.589 95.7681 148.695C95.7114 148.802 95.7027 148.923 95.7414 149.058L96.4422 151.49L95.1272 152.036C94.9965 151.735 94.8887 151.462 94.8037 151.217C94.5892 150.648 94.3812 150.016 94.1808 149.32Z" fill="#625C4B"/>
<path d="M2.46602 161.818L6.66961 160.873L3.06967 163.718L3.52639 165.155L7.78748 164.391L4.12685 167.045L4.65385 168.704L10.3767 164.346L9.872 162.757L5.563 163.406L9.13104 160.425L8.6264 158.837L1.93903 160.16L2.46602 161.818Z" fill="#625C4B"/>
<path d="M6.37744 172.498L7.28981 174.388L13.7821 172.335L13.0348 170.787L11.9228 171.167L10.9967 169.248L11.8382 168.308L11.0909 166.76L6.37744 172.498ZM7.99582 172.616L9.94123 170.464L10.5189 171.661L7.99582 172.616Z" fill="#625C4B"/>
<path d="M15.3106 175.131C14.9838 174.614 14.6458 174.332 14.2965 174.285C13.9472 174.238 13.5489 174.417 13.1017 174.825L9.33441 178.254L10.2358 179.681L13.7926 176.443C14.0474 176.211 14.265 176.238 14.4452 176.523L15.527 178.235L16.6346 177.227L15.3106 175.131Z" fill="#625C4B"/>
<path d="M13.9915 185.087L15.7496 183.037L16.2273 183.628L15.2057 186.587L16.3203 187.965L17.544 184.101L20.8167 182.851L19.702 181.473L17.2025 182.491L16.7248 181.9L18.4348 179.907L17.3732 178.595L12.93 183.775L13.9915 185.087Z" fill="#625C4B"/>
<path d="M25.1506 195.889C26.2447 196.692 27.0647 196.558 27.6104 195.486C27.786 195.142 27.8692 194.803 27.8601 194.469C27.8534 194.146 27.7385 193.859 27.5153 193.609C27.8459 193.74 28.1573 193.74 28.4493 193.61C28.7414 193.48 28.9911 193.211 29.1986 192.804C29.5018 192.209 29.5815 191.678 29.4378 191.211C29.2908 190.75 28.9282 190.307 28.35 189.883L25.9859 188.148L22.8886 194.229L25.1506 195.889ZM26.3772 193.458C26.4906 193.541 26.5545 193.653 26.569 193.793C26.586 193.943 26.5561 194.093 26.4795 194.244C26.3774 194.444 26.2672 194.561 26.1488 194.595C26.0329 194.639 25.9211 194.621 25.8134 194.542L24.929 193.893L25.4843 192.803L26.3772 193.458ZM27.6277 191.187C27.7807 191.299 27.8698 191.438 27.8949 191.602C27.92 191.767 27.8832 191.946 27.7842 192.141C27.6948 192.316 27.5805 192.426 27.4412 192.47C27.3076 192.519 27.1671 192.489 27.0197 192.38L26.0587 191.675L26.6667 190.482L27.6277 191.187Z" fill="#625C4B"/>
<path d="M29.9801 198.966L31.5672 194.673C31.7476 194.184 32.1481 194.105 32.7688 194.436C33.4019 194.774 33.6282 195.186 33.4478 195.674L31.8608 199.968L33.3317 200.751L34.9187 196.457C35.2064 195.679 35.2126 195.019 34.9373 194.478C34.6619 193.937 34.1146 193.448 33.2954 193.012C32.4823 192.579 31.8162 192.421 31.2971 192.539C30.7756 192.664 30.3721 193.113 30.0869 193.884L28.4998 198.178L29.9801 198.966Z" fill="#625C4B"/>
<path d="M34.7569 201.339L39.6521 203.092L40.0136 201.639L38.3554 201.045L39.6409 195.876L38.0522 195.307L36.7667 200.476L35.1184 199.885L34.7569 201.339Z" fill="#625C4B"/>
<path d="M47.4065 202.868C47.3831 203.43 47.5203 203.854 47.818 204.14C48.1225 204.433 48.5204 204.594 49.0117 204.623L49.8119 204.671C50.6969 204.71 51.4252 204.708 51.997 204.665L52.0557 203.252L49.5499 203.102C49.3955 203.093 49.2814 203.044 49.2078 202.955C49.1338 202.873 49.0992 202.772 49.1042 202.653L49.1406 201.778L51.6604 201.845L51.7152 200.527L49.2032 200.271L49.3058 197.805L47.6213 197.704L47.4065 202.868Z" fill="#625C4B"/>
<path d="M55.0264 204.591L54.7743 197.771L53.0891 197.861L53.3412 204.681L55.0264 204.591Z" fill="#625C4B"/>
<path d="M60.0149 203.909C60.7075 203.789 61.1916 203.517 61.466 203.092C61.7475 202.666 61.8428 202.073 61.7524 201.312C61.692 200.809 61.5651 200.425 61.3707 200.159C61.1769 199.9 60.9144 199.714 60.5823 199.6L61.4513 196.746L59.778 197.034L59.074 199.581L58.3062 199.724L58.0209 197.336L56.358 197.622L57.1666 204.398L60.0149 203.909ZM59.356 200.879C59.5777 200.841 59.7486 200.879 59.8684 200.994C59.9958 201.115 60.0764 201.315 60.1096 201.594C60.1423 201.867 60.1135 202.071 60.0236 202.207C59.9343 202.344 59.7748 202.432 59.5461 202.471L58.652 202.625L58.462 201.033L59.356 200.879Z" fill="#625C4B"/>
<path d="M64.0983 195.696C63.777 195.801 63.4215 195.942 63.0311 196.12C62.6472 196.296 62.3336 196.465 62.0896 196.625L62.3793 197.911C62.5448 197.85 62.6772 197.799 62.7763 197.76C62.8748 197.721 62.9538 197.688 63.012 197.661C63.581 197.447 64.0259 197.288 64.3471 197.183C64.6483 197.086 64.884 197.05 65.055 197.075C65.2271 197.108 65.336 197.223 65.3806 197.422L65.4106 197.556C65.4432 197.7 65.422 197.829 65.3469 197.941C65.2717 198.054 65.1606 198.134 65.0136 198.182L64.5219 198.342C63.8397 198.563 63.3654 198.879 63.0991 199.289C62.8394 199.697 62.7871 200.245 62.9418 200.931L63.0109 201.239C63.1563 201.884 63.4525 202.307 63.9001 202.508C64.3471 202.708 64.9254 202.694 65.6344 202.463C65.9219 202.37 66.2573 202.235 66.6411 202.059C67.025 201.883 67.343 201.717 67.5951 201.562L67.3027 200.265C66.7468 200.505 66.1473 200.729 65.5053 200.937C65.2113 201.033 64.9809 201.063 64.8154 201.029C64.6515 201.001 64.5448 200.878 64.4953 200.658L64.4718 200.555C64.3945 200.212 64.56 199.974 64.9679 199.842L65.5696 199.647C66.1451 199.46 66.5535 199.154 66.7952 198.73C67.0381 198.312 67.098 197.829 66.9744 197.28L66.9025 196.961C66.7865 196.447 66.6117 196.069 66.3781 195.829C66.1446 195.588 65.8429 195.461 65.4743 195.449C65.1116 195.433 64.6532 195.516 64.0983 195.696Z" fill="#625C4B"/>
<path d="M69.1415 201.11L73.8243 198.849L73.3484 197.429L71.7622 198.195L70.0694 193.145L68.5497 193.878L70.2425 198.928L68.6656 199.689L69.1415 201.11Z" fill="#625C4B"/>
<path d="M78.7051 191.346C79.0628 191.944 79.3993 192.399 79.7157 192.712C80.0407 193.026 80.356 193.216 80.662 193.282C80.9392 193.354 81.2169 193.339 81.4946 193.236C81.7777 193.13 82.0712 192.946 82.375 192.684C82.6413 192.454 82.9163 192.172 83.1994 191.836C83.4918 191.501 83.7123 191.202 83.8604 190.937L83.1842 189.805C82.8635 190.228 82.4289 190.675 81.8801 191.149C81.7097 191.295 81.5561 191.396 81.4189 191.45C81.2904 191.505 81.1673 191.516 81.0497 191.48C80.8918 191.433 80.7263 191.311 80.5515 191.114C80.386 190.918 80.1878 190.627 79.9569 190.24C79.726 189.854 79.5589 189.541 79.4554 189.301C79.3574 189.056 79.3122 188.839 79.3198 188.649C79.3334 188.483 79.3814 188.327 79.4641 188.182C79.5507 188.044 79.6819 187.899 79.8578 187.747C80.3958 187.284 80.8728 186.914 81.2888 186.637L80.6228 185.524C80.3718 185.603 80.0816 185.753 79.7527 185.972C79.4276 186.197 79.108 186.446 78.7933 186.716C78.4846 186.983 78.2406 187.257 78.062 187.539C77.8889 187.816 77.7811 188.128 77.7386 188.476C77.6651 189.188 77.9869 190.146 78.7051 191.346Z" fill="#625C4B"/>
<path d="M83.2896 187.064C83.8243 187.753 84.2991 188.229 84.7135 188.492C85.1317 188.76 85.5504 188.831 85.9696 188.705C86.3884 188.579 86.8507 188.233 87.357 187.667C87.8629 187.101 88.1814 186.569 88.311 186.071C88.4455 185.578 88.4134 185.074 88.2146 184.56C88.0213 184.039 87.6614 183.44 87.1354 182.763C86.6094 182.086 86.1368 181.612 85.7181 181.344C85.3037 181.081 84.8872 181.012 84.4684 181.138C84.0497 181.264 83.5896 181.608 83.0881 182.168C82.5817 182.735 82.2594 183.267 82.1205 183.764C81.986 184.257 82.0138 184.761 82.2033 185.275C82.4015 185.79 82.7636 186.386 83.2896 187.064ZM84.4004 185.821C84.0813 185.41 83.8564 185.076 83.7257 184.817C83.5994 184.564 83.5559 184.322 83.5956 184.091C83.6354 183.86 83.772 183.614 84.0067 183.352C84.2408 183.09 84.4532 182.945 84.6432 182.92C84.8382 182.889 85.038 182.961 85.2438 183.135C85.4496 183.31 85.7099 183.6 86.0246 184.006C86.3562 184.433 86.5855 184.773 86.7118 185.026C86.8425 185.285 86.8882 185.524 86.8496 185.745C86.8104 185.965 86.671 186.209 86.4319 186.476C86.1929 186.743 85.9784 186.895 85.7878 186.932C85.6021 186.963 85.4061 186.891 85.2008 186.717C84.9993 186.548 84.7325 186.249 84.4004 185.821Z" fill="#625C4B"/>
<path d="M89.3035 182.523C89.702 182.921 90.0837 183.086 90.4491 183.02C90.8237 182.954 91.1504 182.718 91.4308 182.313L91.8871 181.654C92.381 180.916 92.7632 180.285 93.0322 179.762L92.0314 178.764L90.6032 180.829C90.515 180.955 90.4191 181.021 90.3151 181.025C90.2166 181.034 90.1246 180.996 90.0402 180.912L89.42 180.294L90.7948 178.162L89.8616 177.23L88.3522 179.229L86.6043 177.486L85.6438 178.874L89.3035 182.523Z" fill="#625C4B"/>
<path d="M92.9416 176.88C93.3853 177.226 93.7866 177.344 94.1444 177.236C94.5114 177.126 94.8114 176.854 95.0455 176.421L95.4261 175.716C95.8361 174.928 96.1454 174.259 96.3551 173.711L95.2394 172.843L94.0469 175.052C93.9734 175.188 93.8852 175.264 93.7817 175.281C93.6837 175.301 93.5879 175.275 93.4937 175.201L92.8027 174.664L93.9336 172.394L92.8925 171.584L91.6119 173.738L89.6636 172.223L88.8621 173.707L92.9416 176.88Z" fill="#625C4B"/>
<path d="M92.1714 166.479C91.7255 167.573 91.9634 168.39 92.8852 168.932L96.0053 170.763C96.4904 171.047 96.9064 171.114 97.2538 170.963C97.6099 170.809 97.8805 170.504 98.0662 170.048C98.2067 169.703 98.3641 169.299 98.5378 168.836L99.0833 167.22L97.8555 166.499L96.92 168.794C96.7953 169.1 96.6058 169.179 96.351 169.029L95.7782 168.692L96.6472 166.31L95.5011 165.637L94.4774 167.929L93.9405 167.614C93.7951 167.529 93.7004 167.429 93.6568 167.314C93.6132 167.2 93.6181 167.078 93.671 166.947L94.6266 164.603L93.3982 163.882C93.237 164.167 93.1014 164.426 92.9914 164.66C92.7181 165.202 92.4447 165.808 92.1714 166.479Z" fill="#625C4B"/>
<path d="M94.1808 160.362C93.8541 161.497 94.1841 162.269 95.1713 162.679L98.5124 164.066C99.0324 164.281 99.4582 164.292 99.7903 164.097C100.131 163.898 100.37 163.562 100.506 163.089C100.609 162.731 100.723 162.313 100.846 161.834L101.216 160.173L99.9009 159.626L99.2142 162.009C99.1228 162.326 98.9409 162.428 98.6681 162.315L98.0544 162.06L98.6643 159.601L97.437 159.092L96.661 161.482L96.0866 161.244C95.9303 161.179 95.8241 161.093 95.7681 160.987C95.7114 160.88 95.7027 160.759 95.7414 160.624L96.4422 158.191L95.1272 157.646C94.9965 157.947 94.8887 158.22 94.8037 158.464C94.5892 159.033 94.3812 159.666 94.1808 160.362Z" fill="#625C4B"/>
<path d="M52.476 139.512L54.843 152.935L68.2667 155.302L54.843 157.669L52.476 171.093L50.1089 157.669L36.6854 155.302L50.1089 152.935L52.476 139.512Z" fill="#B0A27B"/>
</svg>
